<?xml version="1.0" encoding="utf-8"?>
<!-- Generator: Adobe Illustrator 16.0.3, SVG Export Plug-In . SVG Version: 6.00 Build 0)  -->
<!DOCTYPE svg PUBLIC "-//W3C//DTD SVG 1.1//EN" "http://www.w3.org/Graphics/SVG/1.1/DTD/svg11.dtd">
<svg version="1.1" id="Layer_1" xmlns="http://www.w3.org/2000/svg" xmlns:xlink="http://www.w3.org/1999/xlink" x="0px" y="0px"
	 width="71.667px" height="100px" viewBox="0 0 71.667 100" enable-background="new 0 0 71.667 100" xml:space="preserve">
<path fill="#FFFF00" d="M35.925,4.965c-17.53,0-31.781,14.25-31.781,31.781c0,0.374,0,0.75,0,1.125
	c0.094,3.375,0.75,6.562,1.782,9.563c4.687,15.468,17.343,34.313,24.656,44.345c3.188,4.312,7.501,4.312,10.407,0.187
	c7.22-9.938,19.97-28.874,24.75-44.438c1.031-2.999,1.688-6.188,1.78-9.563c0-0.374,0-0.749,0-1.125
	C67.708,19.215,53.457,4.965,35.925,4.965z M35.925,48.84c-6.655,0-12.093-5.438-12.093-12.094c0-6.657,5.438-12.094,12.093-12.094
	c6.659,0,12.095,5.437,12.095,12.094C48.021,43.402,42.583,48.84,35.925,48.84z"/>
<path fill="#FFC600" d="M35.925,4.965c17.532,0,31.784,14.25,31.594,31.874c0,0.376,0,0.751,0,1.125
	c-0.094,3.375-0.749,6.563-1.78,9.563c-4.78,15.564-17.53,34.5-24.75,44.438c-1.438,2.04-3.218,3.071-5.037,3.071
	c-1.859,0-3.759-1.078-5.37-3.259C23.27,81.746,10.613,62.902,5.926,47.434c-1.031-3.001-1.688-6.188-1.782-9.563
	c0-0.375,0-0.751,0-1.125C4.145,19.215,18.395,4.965,35.925,4.965 M35.925,48.84c6.659,0,12.095-5.438,12.095-12.094
	c0-6.657-5.438-12.094-12.095-12.094c-6.655,0-12.093,5.437-12.093,12.094C23.832,43.402,29.27,48.84,35.925,48.84 M35.925,2.13
	C16.838,2.13,1.31,17.658,1.31,36.746v1.125v0.039l0.001,0.04c0.096,3.432,0.741,6.916,1.917,10.354
	c4.879,16.053,17.794,35.17,25.063,45.143c2.112,2.857,4.829,4.423,7.661,4.423c2.801,0,5.413-1.519,7.354-4.272
	c7.256-9.988,20.195-29.181,25.129-45.194c1.178-3.439,1.822-6.926,1.918-10.361l0.001-0.039v-0.039V36.84
	c0.099-9.215-3.425-17.922-9.92-24.487C53.914,5.76,45.208,2.13,35.925,2.13L35.925,2.13z"/>
</svg>
